<svg width="41" height="28" viewBox="0 0 41 28" fill="none" xmlns="http://www.w3.org/2000/svg">
<path d="M17.4885 0.254925C15.9789 0.577187 14.198 1.45917 12.9429 2.51076C11.7387 3.51146 10.3139 5.42807 9.8899 6.61535L9.60156 7.41252L8.60085 7.53125C4.69979 7.97224 1.07011 11.2966 0.255977 15.2146C-0.931302 20.744 2.10474 25.8493 7.43054 27.3079C9.22842 27.7998 12.1966 27.698 14.1302 27.0705C17.4715 25.985 19.439 24.1871 22.7634 19.1496C25.9351 14.3496 27.6652 12.7553 30.345 12.1786C32.533 11.7207 35.4673 13.2811 36.6037 15.5369C36.7903 15.8931 37.0447 16.6733 37.1634 17.25C37.6892 19.8111 36.1627 22.6775 33.6185 23.8648C32.7874 24.2549 32.4312 24.3228 31.1252 24.3228C29.3782 24.3228 28.6828 24.0684 27.1394 22.898C26.0708 22.0839 25.2567 21.9821 24.5274 22.5588C24.1542 22.8472 24.0864 23.0337 24.0864 23.7631C24.0864 24.5772 24.1373 24.679 24.8835 25.3574C27.4616 27.732 31.7189 28.3426 35.145 26.8161C40.827 24.3058 42.3535 16.5546 38.0793 11.8903C36.3153 9.93973 34.0426 8.97295 31.2609 8.97295C30.2941 8.97295 29.1577 9.09167 28.5811 9.24433C25.6468 10.0076 23.0178 12.45 19.9818 17.25C17.5733 21.0832 16.2673 22.457 14.1641 23.4747C9.36411 25.7475 4.41145 23.6104 3.37683 18.7934C2.66446 15.503 5.03902 11.8055 8.43124 10.9235C10.5683 10.3638 12.485 10.8047 14.4355 12.2804C15.7245 13.2641 16.1486 13.3828 16.9457 12.9588C17.5224 12.6705 17.6411 12.3991 17.6411 11.4323C17.6411 10.8048 17.5563 10.6351 16.8948 10.0245C15.9959 9.19344 15.0122 8.56588 14.0454 8.17577C13.6383 8.02312 13.2482 7.83655 13.1634 7.76871C12.9429 7.56517 13.9945 6.02171 14.9104 5.22454C18.4383 2.10369 23.8828 2.78214 26.5118 6.64927C27.2411 7.71782 27.7839 8.04008 28.5811 7.88743C29.8192 7.63302 30.2772 6.1574 29.48 5.021C27.1055 1.62878 23.9846 -0.0334129 20.0157 0.000509262C19.2185 0.000509262 18.0821 0.119236 17.4885 0.254925Z" fill="#0066ff"/>
</svg>
